<svg version="1.1" id="Calque_1" xmlns="http://www.w3.org/2000/svg" xmlns:xlink="http://www.w3.org/1999/xlink" x="0px" y="0px"
	 viewBox="0 0 56.7 56.7" style="enable-background:new 0 0 56.7 56.7;" xml:space="preserve">
  <g id="Calque_3">
    <g>
      <path fill="#ffffff" d="M21.1,21.1c0,0-8.6,9.8-8.6,16.6c-0.2,5,3.5,9.2,8.2,9.5c4.8,0.2,8.8-3.6,9.1-8.6c0-0.3,0-0.6,0-0.9 C29.7,30.9,21.1,21.1,21.1,21.1z"/>
      <path fill="#ffffff" d="M38.5,9.5c0,0-5.8,6.5-5.8,11.1c-0.2,3.3,2.3,6.2,5.5,6.3c3.2,0.2,5.9-2.4,6-5.7c0-0.2,0-0.4,0-0.6 C44.2,16.1,38.5,9.5,38.5,9.5z"/>
    </g>
  </g>
</svg>
