<svg version="1.1" id="Calque_1" xmlns="http://www.w3.org/2000/svg" xmlns:xlink="http://www.w3.org/1999/xlink" x="0px" y="0px"
	 viewBox="0 0 56.7 56.7" style="enable-background:new 0 0 56.7 56.7;" xml:space="preserve">
  <g id="Calque_4">
    <g>
      <path fill="#ffffff" d="M29.4,25.1c0,0-8.7,9.8-8.7,16.6c-0.2,5,3.5,9.3,8.3,9.5s8.9-3.6,9.1-8.6c0-0.3,0-0.6,0-0.9 C38.1,34.9,29.4,25.1,29.4,25.1z"/>
      <path fill="#ffffff" d="M41.1,4.8c0,0-5.8,6.6-5.8,11.1c-0.2,3.3,2.3,6.2,5.5,6.3c3.2,0.2,5.9-2.4,6.1-5.8c0-0.2,0-0.4,0-0.6 C46.8,11.3,41.1,4.8,41.1,4.8z"/>
      <path fill="#ffffff" d="M14.9,13.5c0,0-5.8,6.6-5.8,11.1c-0.2,3.3,2.3,6.2,5.5,6.3c3.2,0.2,5.9-2.4,6.1-5.8c0-0.2,0-0.4,0-0.6 C20.7,20,14.9,13.5,14.9,13.5z"/>
    </g>
  </g>
</svg>
